<svg width="579" height="86" viewBox="0 0 579 86" fill="none" xmlns="http://www.w3.org/2000/svg">
<path d="M34.1028 44.9586C32.8891 40.494 31.1999 33.4754 29.5054 27.381C28.6565 24.3314 27.8086 21.5129 27.0029 19.324C26.1097 17.1072 25.644 15.6449 24.3339 14.7148C22.992 13.9196 21.7078 13.52 20.4884 13.5208C16.7868 13.6093 14.9251 16.8277 13.5647 19.4861C11.8203 23.0436 1.40486 38.2229 0.218665 49.1792C0.0779478 50.522 0 51.8878 0 53.2526C0.00463056 57.9712 0.916337 62.7097 3.5326 66.3855C6.1409 70.0741 10.5474 72.505 16.8236 72.4791C16.9473 72.4791 17.0718 72.4783 17.1976 72.4768C29.729 72.2188 34.8463 60.0139 34.8064 50.6694C34.8059 48.6259 34.571 46.6838 34.1028 44.9586ZM17.1609 69.9172C17.0482 69.9187 16.9355 69.9195 16.8236 69.9195C5.73649 69.8442 2.72534 62.1442 2.57202 53.2526C2.57202 51.9851 2.64456 50.7063 2.77731 49.4447C3.76876 39.5872 13.8943 24.475 15.8664 20.6297C17.1683 17.9825 18.7214 15.9918 20.4884 16.0801C21.1365 16.0801 21.9607 16.2893 23.0188 16.9152C23.0226 16.9121 23.0247 16.9109 23.124 17.0509C24.0794 18.2383 25.81 23.4945 27.3409 29.2056C28.9137 34.9661 30.466 41.381 31.62 45.627C32.0185 47.0906 32.2349 48.8231 32.2341 50.6694C32.1942 59.3708 27.6023 69.8419 17.1609 69.9172Z" fill="#1F4322"/>
<path d="M17.6273 37.5065C14.8849 37.5351 9.48467 40.445 8.03608 47.3985C7.81664 48.4776 7.66435 49.6752 7.66357 50.8995C7.66435 53.0641 8.14181 55.3416 9.66115 57.105C11.1805 58.8707 13.7062 60.0082 17.4912 60.0012C17.538 60.0012 17.5853 60.0012 17.6319 60.0012C24.8993 59.9695 27.266 54.1524 27.2424 49.5846C27.2408 47.9536 26.9689 46.4441 26.5159 45.2826C24.756 40.966 20.4717 37.5907 17.6273 37.5065ZM17.6229 58.7214C17.5791 58.7214 17.5346 58.7214 17.4909 58.7214C10.4645 58.6423 9.04554 54.8823 8.9501 50.8995C8.9501 49.7823 9.09133 48.6643 9.29662 47.652C10.552 41.3011 15.6665 38.7566 17.6275 38.7858C19.4872 38.7018 23.8749 41.8966 25.3176 45.7483C25.6991 46.7168 25.9576 48.1003 25.9561 49.5844C25.8967 53.8495 24.0357 58.6541 17.6229 58.7214Z" fill="#1F4322"/>
<path d="M23.9525 50.9216C23.813 50.8922 23.677 50.9813 23.6479 51.119C23.005 54.1622 20.2789 56.399 17.0833 56.3983C16.9536 56.3983 16.8232 56.3944 16.6918 56.3872C16.55 56.3791 16.4288 56.4876 16.4206 56.6282C16.4124 56.7697 16.5207 56.8903 16.6627 56.8985C16.8034 56.9059 16.9441 56.9105 17.0833 56.9105C20.5233 56.9098 23.4573 54.505 24.1516 51.2245C24.1807 51.086 24.0916 50.9503 23.9525 50.9216Z" fill="#1F4322"/>
<path d="M23.1115 46.2771C22.9862 46.3442 22.9389 46.4988 23.0063 46.6235C23.4735 47.4926 23.7508 48.4719 23.7876 49.5067C23.7922 49.6483 23.911 49.7586 24.0533 49.7537C24.1956 49.7484 24.3064 49.6301 24.3016 49.489C24.2625 48.3741 23.9633 47.318 23.4601 46.3826C23.3929 46.2579 23.2365 46.2105 23.1115 46.2771Z" fill="#1F4322"/>
<path d="M54.8502 48.4534H56.6154V55.0916C55.8032 55.8043 54.8419 56.3513 53.7314 56.7325C52.6209 57.1137 51.4524 57.3043 50.2258 57.3043C48.4855 57.3043 46.9192 56.9231 45.5269 56.1607C44.1346 55.3982 43.0407 54.3457 42.2451 53.0032C41.4495 51.6441 41.0517 50.1275 41.0517 48.4534C41.0517 46.7794 41.4495 45.2711 42.2451 43.9285C43.0407 42.5694 44.1346 41.5086 45.5269 40.7462C46.9192 39.9837 48.4938 39.6025 50.2507 39.6025C51.5767 39.6025 52.7949 39.818 53.9054 40.2489C55.0159 40.6633 55.9524 41.2849 56.7148 42.1136L55.5712 43.2821C54.1955 41.923 52.4468 41.2434 50.3253 41.2434C48.9164 41.2434 47.6402 41.5583 46.4965 42.1882C45.3694 42.8015 44.4827 43.6633 43.8363 44.7738C43.1899 45.8678 42.8667 47.0943 42.8667 48.4534C42.8667 49.8126 43.1899 51.0391 43.8363 52.133C44.4827 53.2269 45.3694 54.0888 46.4965 54.7187C47.6236 55.3485 48.8916 55.6634 50.3004 55.6634C52.0905 55.6634 53.6071 55.2159 54.8502 54.3209V48.4534ZM74.1264 57.1552L70.1485 51.5612C69.7009 51.6109 69.2369 51.6358 68.7562 51.6358H64.0821V57.1552H62.2423V39.7517H68.7562C70.9772 39.7517 72.7175 40.2821 73.9772 41.3429C75.2369 42.4037 75.8667 43.8622 75.8667 45.7186C75.8667 47.0777 75.5187 48.2297 74.8225 49.1744C74.143 50.1026 73.1651 50.7739 71.8888 51.1883L76.1402 57.1552H74.1264ZM68.7065 50.0695C70.4302 50.0695 71.7479 49.6882 72.6595 48.9258C73.5711 48.1634 74.0269 47.0943 74.0269 45.7186C74.0269 44.3097 73.5711 43.2324 72.6595 42.4865C71.7479 41.7241 70.4302 41.3429 68.7065 41.3429H64.0821V50.0695H68.7065ZM92.9357 55.564V57.1552H80.6289V39.7517H92.5627V41.3429H82.4687V47.5335H91.4688V49.0998H82.4687V55.564H92.9357ZM109.987 55.564V57.1552H97.6802V39.7517H109.614V41.3429H99.52V47.5335H108.52V49.0998H99.52V55.564H109.987ZM129.276 39.7517V57.1552H127.759L116.571 43.0335V57.1552H114.731V39.7517H116.248L127.461 53.8734V39.7517H129.276ZM144.143 41.3429V48.1799H153.143V49.7711H144.143V57.1552H142.303V39.7517H154.237V41.3429H144.143ZM166.064 57.3043C164.34 57.3043 162.773 56.9231 161.365 56.1607C159.972 55.3817 158.878 54.3209 158.083 52.9783C157.304 51.6358 156.914 50.1275 156.914 48.4534C156.914 46.7794 157.304 45.2711 158.083 43.9285C158.878 42.586 159.972 41.5335 161.365 40.771C162.773 39.992 164.34 39.6025 166.064 39.6025C167.787 39.6025 169.337 39.9837 170.713 40.7462C172.105 41.5086 173.199 42.5694 173.995 43.9285C174.79 45.2711 175.188 46.7794 175.188 48.4534C175.188 50.1275 174.79 51.6441 173.995 53.0032C173.199 54.3457 172.105 55.3982 170.713 56.1607C169.337 56.9231 167.787 57.3043 166.064 57.3043ZM166.064 55.6634C167.439 55.6634 168.682 55.3568 169.793 54.7435C170.903 54.1137 171.774 53.2518 172.403 52.1579C173.033 51.0474 173.348 49.8126 173.348 48.4534C173.348 47.0943 173.033 45.8678 172.403 44.7738C171.774 43.6633 170.903 42.8015 169.793 42.1882C168.682 41.5583 167.439 41.2434 166.064 41.2434C164.688 41.2434 163.436 41.5583 162.309 42.1882C161.199 42.8015 160.32 43.6633 159.674 44.7738C159.044 45.8678 158.729 47.0943 158.729 48.4534C158.729 49.8126 159.044 51.0474 159.674 52.1579C160.32 53.2518 161.199 54.1137 162.309 54.7435C163.436 55.3568 164.688 55.6634 166.064 55.6634ZM175.264 57.3043C173.54 57.3043 171.973 56.9231 170.565 56.1607C169.172 55.3817 168.078 54.3209 167.283 52.9783C166.504 51.6358 166.114 50.1275 166.114 48.4534C166.114 46.7794 166.504 45.2711 167.283 43.9285C168.078 42.586 169.172 41.5335 170.565 40.771C171.973 39.992 173.54 39.6025 175.264 39.6025C176.987 39.6025 178.537 39.9837 179.913 40.7462C181.305 41.5086 182.399 42.5694 183.195 43.9285C183.99 45.2711 184.388 46.7794 184.388 48.4534C184.388 50.1275 183.99 51.6441 183.195 53.0032C182.399 54.3457 181.305 55.3982 179.913 56.1607C178.537 56.9231 176.987 57.3043 175.264 57.3043ZM175.264 55.6634C176.639 55.6634 177.882 55.3568 178.993 54.7435C180.103 54.1137 180.974 53.2518 181.603 52.1579C182.233 51.0474 182.548 49.8126 182.548 48.4534C182.548 47.0943 182.233 45.8678 181.603 44.7738C180.974 43.6633 180.103 42.8015 178.993 42.1882C177.882 41.5583 176.639 41.2434 175.264 41.2434C173.888 41.2434 172.636 41.5583 171.509 42.1882C170.399 42.8015 169.52 43.6633 168.874 44.7738C168.244 45.8678 167.929 47.0943 167.929 48.4534C167.929 49.8126 168.244 51.0474 168.874 52.1579C169.52 53.2518 170.399 54.1137 171.509 54.7435C172.636 55.3568 173.888 55.6634 175.264 55.6634ZM187.515 39.7517H194.6C196.44 39.7517 198.064 40.1246 199.473 40.8705C200.882 41.5998 201.976 42.6274 202.755 43.9534C203.534 45.2628 203.923 46.7628 203.923 48.4534C203.923 50.144 203.534 51.6523 202.755 52.9783C201.976 54.2877 200.882 55.3154 199.473 56.0612C198.064 56.7905 196.44 57.1552 194.6 57.1552H187.515V39.7517ZM194.501 55.564C196.026 55.564 197.36 55.2656 198.504 54.6689C199.647 54.0557 200.534 53.2187 201.164 52.1579C201.794 51.0805 202.109 49.8457 202.109 48.4534C202.109 47.0612 201.794 45.8346 201.164 44.7738C200.534 43.6965 199.647 42.8595 198.504 42.2628C197.36 41.6495 196.026 41.3429 194.501 41.3429H189.354V55.564H194.501Z" fill="#1F4322"/>
</svg>
