<svg width="273" height="78" viewBox="0 0 273 78" fill="none" xmlns="http://www.w3.org/2000/svg">
<path d="M49.2316 41.3221C47.9065 36.4479 46.0624 28.7854 44.2124 22.1319C43.2856 18.8025 42.3599 15.7255 41.4803 13.3357C40.5051 10.9155 39.9968 9.31902 38.5664 8.30359C37.1015 7.43546 35.6994 6.99916 34.3682 7C30.3269 7.09671 28.2944 10.6103 26.8092 13.5126C24.9047 17.3966 13.5338 33.9685 12.2387 45.93C12.0851 47.3959 12 48.8871 12 50.3771C12.0051 55.5286 13.0004 60.7019 15.8567 64.7149C18.7043 68.742 23.5151 71.3958 30.3671 71.3676C30.5022 71.3676 30.6381 71.3668 30.7755 71.3651C44.4565 71.0833 50.0433 57.7587 49.9997 47.5569C49.9992 45.326 49.7428 43.2057 49.2316 41.3221ZM30.7353 68.5706C30.6123 68.5723 30.4893 68.5732 30.3671 68.5732C18.2628 68.491 14.9754 60.0844 14.808 50.3771C14.808 48.9933 14.8872 47.5972 15.0321 46.2198C16.1145 35.4579 27.169 18.9593 29.322 14.7612C30.7435 11.8711 32.439 9.69774 34.3682 9.79417C35.0756 9.79417 35.9755 10.0225 37.1307 10.7059C37.1349 10.7025 37.1371 10.7011 37.2455 10.854C38.2886 12.1504 40.1779 17.8888 41.8493 24.1239C43.5665 30.4129 45.2612 37.4164 46.5211 42.0519C46.9561 43.6498 47.1923 45.5412 47.1915 47.5569C47.1479 57.0566 42.1347 68.4885 30.7353 68.5706Z" fill="#1F4322"/>
<path d="M31.2445 33.1865C28.2506 33.2178 22.3549 36.3946 20.7734 43.9861C20.5338 45.1642 20.3675 46.4717 20.3667 47.8083C20.3675 50.1715 20.8888 52.6579 22.5475 54.5831C24.2063 56.5108 26.9637 57.7527 31.0959 57.7451C31.1471 57.7451 31.1987 57.7451 31.2496 57.7451C39.1837 57.7105 41.7676 51.3597 41.7418 46.3728C41.7401 44.5921 41.4432 42.9442 40.9486 41.6761C39.0273 36.9634 34.3499 33.2785 31.2445 33.1865ZM31.2397 56.3479C31.192 56.3479 31.1434 56.3479 31.0957 56.3479C23.4247 56.2615 21.8755 52.1565 21.7713 47.8083C21.7713 46.5886 21.9254 45.368 22.1496 44.2629C23.5201 37.3293 29.1038 34.5513 31.2448 34.5832C33.2751 34.4915 38.0654 37.9794 39.6404 42.1845C40.0569 43.2418 40.3392 44.7523 40.3375 46.3725C40.2726 51.029 38.2409 56.2744 31.2397 56.3479Z" fill="#1F4322"/>
<path d="M38.1501 47.8323C37.9979 47.8002 37.8493 47.8974 37.8176 48.0478C37.1157 51.3702 34.1395 53.8122 30.6507 53.8114C30.5092 53.8114 30.3668 53.8072 30.2233 53.7994C30.0685 53.7904 29.9362 53.9089 29.9272 54.0624C29.9183 54.2169 30.0365 54.3486 30.1915 54.3575C30.3452 54.3656 30.4988 54.3707 30.6507 54.3707C34.4063 54.3698 37.6095 51.7445 38.3675 48.163C38.3992 48.0118 38.3021 47.8636 38.1501 47.8323Z" fill="#1F4322"/>
<path d="M37.2314 42.7614C37.0946 42.8347 37.0429 43.0035 37.1165 43.1396C37.6266 44.0885 37.9293 45.1576 37.9695 46.2873C37.9745 46.4419 38.1043 46.5624 38.2596 46.5571C38.4149 46.5512 38.536 46.4221 38.5306 46.268C38.4879 45.0508 38.1613 43.8979 37.612 42.8766C37.5387 42.7405 37.3679 42.6888 37.2314 42.7614Z" fill="#1F4322"/>
<path d="M72.6434 38.8759H74.4943V45.8363C73.6427 46.5836 72.6347 47.1571 71.4703 47.5568C70.3058 47.9566 69.0806 48.1564 67.7945 48.1564C65.9697 48.1564 64.3274 47.7567 62.8675 46.9572C61.4076 46.1578 60.2606 45.0542 59.4264 43.6465C58.5922 42.2214 58.1751 40.6312 58.1751 38.8759C58.1751 37.1206 58.5922 35.539 59.4264 34.1313C60.2606 32.7062 61.4076 31.5939 62.8675 30.7945C64.3274 29.995 65.9784 29.5953 67.8206 29.5953C69.211 29.5953 70.4883 29.8212 71.6527 30.2731C72.8172 30.7076 73.7991 31.3593 74.5985 32.2283L73.3994 33.4535C71.9569 32.0284 70.1234 31.3159 67.8988 31.3159C66.4216 31.3159 65.0834 31.6461 63.8842 32.3065C62.7024 32.9495 61.7726 33.8532 61.0948 35.0177C60.417 36.1647 60.0781 37.4508 60.0781 38.8759C60.0781 40.301 60.417 41.587 61.0948 42.7341C61.7726 43.8811 62.7024 44.7848 63.8842 45.4452C65.066 46.1057 66.3955 46.4359 67.8727 46.4359C69.7497 46.4359 71.3399 45.9666 72.6434 45.0281V38.8759ZM92.8553 48L88.6843 42.1345C88.215 42.1866 87.7284 42.2127 87.2244 42.2127H82.3235V48H80.3944V29.7517H87.2244C89.5533 29.7517 91.3781 30.3079 92.6989 31.4201C94.0197 32.5324 94.6801 34.0618 94.6801 36.0083C94.6801 37.4334 94.3152 38.6412 93.5853 39.6319C92.8727 40.6051 91.8473 41.309 90.5091 41.7434L94.9669 48H92.8553ZM87.1723 40.5703C88.9797 40.5703 90.3614 40.1706 91.3173 39.3712C92.2731 38.5717 92.751 37.4508 92.751 36.0083C92.751 34.531 92.2731 33.4014 91.3173 32.6193C90.3614 31.8199 88.9797 31.4201 87.1723 31.4201H82.3235V40.5703H87.1723ZM112.578 46.3316V48H99.6735V29.7517H112.187V31.4201H101.603V37.9113H111.04V39.5537H101.603V46.3316H112.578ZM130.457 46.3316V48H117.553V29.7517H130.066V31.4201H119.482V37.9113H128.919V39.5537H119.482V46.3316H130.457ZM150.682 29.7517V48H149.092L137.361 33.1928V48H135.432V29.7517H137.022L148.779 44.5589V29.7517H150.682ZM166.27 31.4201V38.5891H175.707V40.2575H166.27V48H164.341V29.7517H176.854V31.4201H166.27ZM189.255 48.1564C187.448 48.1564 185.806 47.7567 184.328 46.9572C182.869 46.1404 181.721 45.0281 180.887 43.6204C180.07 42.2127 179.662 40.6312 179.662 38.8759C179.662 37.1206 180.07 35.539 180.887 34.1313C181.721 32.7236 182.869 31.62 184.328 30.8206C185.806 30.0037 187.448 29.5953 189.255 29.5953C191.063 29.5953 192.688 29.995 194.13 30.7945C195.59 31.5939 196.737 32.7062 197.571 34.1313C198.406 35.539 198.823 37.1206 198.823 38.8759C198.823 40.6312 198.406 42.2214 197.571 43.6465C196.737 45.0542 195.59 46.1578 194.13 46.9572C192.688 47.7567 191.063 48.1564 189.255 48.1564ZM189.255 46.4359C190.698 46.4359 192.001 46.1143 193.166 45.4713C194.33 44.8109 195.243 43.9072 195.903 42.7601C196.563 41.5957 196.894 40.301 196.894 38.8759C196.894 37.4508 196.563 36.1647 195.903 35.0177C195.243 33.8532 194.33 32.9495 193.166 32.3065C192.001 31.6461 190.698 31.3159 189.255 31.3159C187.813 31.3159 186.501 31.6461 185.319 32.3065C184.155 32.9495 183.233 33.8532 182.556 35.0177C181.895 36.1647 181.565 37.4508 181.565 38.8759C181.565 40.301 181.895 41.5957 182.556 42.7601C183.233 43.9072 184.155 44.8109 185.319 45.4713C186.501 46.1143 187.813 46.4359 189.255 46.4359ZM198.902 48.1564C197.095 48.1564 195.452 47.7567 193.975 46.9572C192.515 46.1404 191.368 45.0281 190.534 43.6204C189.717 42.2127 189.309 40.6312 189.309 38.8759C189.309 37.1206 189.717 35.539 190.534 34.1313C191.368 32.7236 192.515 31.62 193.975 30.8206C195.452 30.0037 197.095 29.5953 198.902 29.5953C200.709 29.5953 202.334 29.995 203.777 30.7945C205.237 31.5939 206.384 32.7062 207.218 34.1313C208.052 35.539 208.469 37.1206 208.469 38.8759C208.469 40.6312 208.052 42.2214 207.218 43.6465C206.384 45.0542 205.237 46.1578 203.777 46.9572C202.334 47.7567 200.709 48.1564 198.902 48.1564ZM198.902 46.4359C200.345 46.4359 201.648 46.1143 202.812 45.4713C203.977 44.8109 204.889 43.9072 205.55 42.7601C206.21 41.5957 206.54 40.301 206.54 38.8759C206.54 37.4508 206.21 36.1647 205.55 35.0177C204.889 33.8532 203.977 32.9495 202.812 32.3065C201.648 31.6461 200.345 31.3159 198.902 31.3159C197.46 31.3159 196.147 31.6461 194.966 32.3065C193.801 32.9495 192.88 33.8532 192.202 35.0177C191.542 36.1647 191.212 37.4508 191.212 38.8759C191.212 40.301 191.542 41.5957 192.202 42.7601C192.88 43.9072 193.801 44.8109 194.966 45.4713C196.147 46.1143 197.46 46.4359 198.902 46.4359ZM211.748 29.7517H219.177C221.106 29.7517 222.81 30.1428 224.287 30.9248C225.764 31.6895 226.911 32.767 227.728 34.1574C228.545 35.5303 228.953 37.1032 228.953 38.8759C228.953 40.6486 228.545 42.2301 227.728 43.6204C226.911 44.9934 225.764 46.0709 224.287 46.853C222.81 47.6177 221.106 48 219.177 48H211.748V29.7517ZM219.073 46.3316C220.672 46.3316 222.071 46.0188 223.27 45.3931C224.469 44.7501 225.399 43.8724 226.06 42.7601C226.72 41.6305 227.05 40.3357 227.05 38.8759C227.05 37.416 226.72 36.1299 226.06 35.0177C225.399 33.888 224.469 33.0103 223.27 32.3847C222.071 31.7417 220.672 31.4201 219.073 31.4201H213.677V46.3316H219.073Z" fill="#1F4322"/>
</svg>
